<?xml version="1.0" standalone="no"?>
<!DOCTYPE svg PUBLIC "-//W3C//DTD SVG 20010904//EN"
 "http://www.w3.org/TR/2001/REC-SVG-20010904/DTD/svg10.dtd">
<svg version="1.0" xmlns="http://www.w3.org/2000/svg"
 width="363.000000pt" height="451.000000pt" viewBox="0 0 363.000000 451.000000"
 preserveAspectRatio="xMidYMid meet">

<g transform="translate(0.000000,451.000000) scale(0.100000,-0.100000)"
fill="#000000" stroke="none">
<path d="M2690 4489 c-36 -9 -103 -35 -149 -58 -49 -23 -99 -41 -119 -41 -21
0 -65 -17 -116 -45 -46 -25 -90 -45 -98 -45 -9 0 -21 -6 -27 -14 -6 -7 -30
-17 -53 -20 -24 -4 -49 -13 -58 -20 -8 -7 -49 -25 -90 -41 -41 -16 -79 -32
-85 -36 -5 -4 -64 -36 -131 -72 -66 -35 -141 -80 -166 -98 -26 -19 -66 -46
-90 -61 -24 -15 -52 -33 -63 -40 -93 -58 -117 -70 -140 -66 -14 3 -29 0 -35
-7 -5 -6 -28 -20 -50 -30 -22 -10 -42 -26 -45 -35 -7 -22 27 -170 67 -290 21
-64 42 -106 64 -130 17 -19 51 -66 74 -105 71 -118 86 -133 143 -150 29 -8 66
-24 82 -35 60 -40 103 -13 91 55 -5 26 -1 39 19 63 14 16 25 40 25 52 0 39
245 266 374 347 28 18 80 57 116 88 36 30 85 67 109 83 86 53 186 126 282 205
75 61 89 66 109 42 11 -13 9 -21 -8 -45 -12 -16 -22 -41 -22 -56 0 -15 -13
-51 -30 -81 -18 -32 -30 -67 -30 -89 0 -20 -9 -52 -21 -71 -17 -27 -20 -43
-14 -79 5 -38 2 -52 -19 -89 -15 -24 -26 -59 -26 -79 0 -19 -11 -76 -24 -126
-14 -50 -30 -125 -36 -168 -7 -42 -17 -86 -22 -96 -6 -11 -14 -53 -19 -94 -13
-119 -40 -141 -134 -108 -34 12 -48 12 -92 1 -28 -7 -89 -17 -135 -21 -46 -3
-88 -10 -94 -15 -6 -5 -35 -13 -64 -19 -30 -6 -61 -17 -70 -25 -9 -8 -23 -15
-31 -15 -8 0 -29 -9 -47 -20 -18 -11 -41 -20 -50 -20 -10 0 -29 -11 -42 -25
-15 -16 -42 -28 -79 -35 -31 -7 -79 -27 -108 -46 -29 -19 -57 -34 -62 -34 -5
0 -22 -11 -38 -24 -15 -13 -48 -33 -72 -45 -24 -13 -117 -78 -207 -146 -90
-69 -183 -136 -206 -151 -24 -15 -78 -64 -121 -110 -43 -46 -85 -84 -92 -84
-8 0 -37 -20 -65 -45 -40 -35 -55 -43 -68 -36 -9 5 -37 48 -62 95 l-45 85 29
83 c16 46 42 107 57 137 30 57 36 86 19 96 -17 11 -11 32 18 63 15 16 47 57
72 91 31 43 54 64 75 69 66 18 25 92 -51 92 -30 0 -51 7 -71 23 -40 33 -101
26 -162 -19 -25 -18 -60 -40 -76 -49 -17 -8 -60 -46 -96 -83 -58 -59 -71 -80
-110 -177 -43 -109 -44 -112 -47 -246 l-3 -137 36 -73 c20 -41 43 -94 51 -119
7 -25 23 -55 34 -67 11 -12 20 -26 20 -32 0 -5 16 -28 35 -51 19 -23 35 -49
35 -58 0 -8 -25 -48 -55 -88 -30 -40 -57 -83 -60 -97 -4 -13 -27 -48 -51 -78
-25 -30 -56 -76 -70 -104 -13 -27 -31 -61 -39 -75 -52 -91 -65 -138 -65 -237
0 -77 4 -104 18 -124 36 -54 180 -188 254 -237 42 -29 80 -56 83 -62 4 -6 25
-20 48 -31 23 -11 59 -36 80 -55 l39 -36 -21 -22 c-13 -13 -17 -26 -12 -35 12
-19 97 -27 116 -11 18 15 42 -1 56 -38 9 -23 12 -24 67 -17 53 6 61 4 89 -19
l30 -25 29 39 c33 43 60 64 74 55 15 -9 12 -41 -5 -55 -8 -7 -15 -18 -15 -25
0 -6 -13 -32 -29 -56 -16 -24 -27 -47 -25 -51 3 -4 23 4 45 19 31 20 40 34 45
65 4 23 14 43 25 49 15 8 19 21 19 69 0 47 4 64 20 80 18 18 20 33 20 194 0
162 -2 178 -25 241 -14 37 -25 75 -23 84 1 9 -4 27 -11 40 -8 14 -16 54 -19
90 -2 36 -13 83 -24 104 -11 22 -17 46 -13 54 3 9 -3 30 -13 48 -11 17 -22 52
-26 77 -4 25 -24 79 -45 121 -22 41 -42 86 -46 99 -4 12 -31 60 -61 104 -30
45 -54 88 -54 96 0 16 248 263 300 298 19 13 51 40 72 60 40 41 164 132 264
195 35 22 88 58 117 79 28 22 88 55 132 73 44 19 93 42 110 52 16 10 66 28
110 41 44 14 92 33 106 43 30 21 72 20 77 -3 1 -8 -55 -73 -125 -145 -129
-131 -306 -361 -360 -469 -14 -28 -40 -67 -58 -87 -18 -20 -36 -52 -40 -70 -4
-19 -16 -45 -26 -58 -11 -13 -19 -28 -19 -34 0 -5 -16 -27 -35 -49 -20 -21
-41 -51 -48 -66 -7 -15 -21 -35 -33 -44 -12 -10 -39 -48 -62 -85 -22 -38 -49
-76 -60 -86 -15 -13 -23 -37 -27 -82 -6 -55 -4 -68 14 -93 12 -17 21 -38 21
-47 0 -24 19 -55 34 -55 7 0 18 11 24 25 7 16 23 28 41 31 19 4 33 15 40 33
19 43 125 151 149 151 12 0 22 -5 22 -12 0 -6 10 -22 22 -35 16 -17 22 -37 23
-76 1 -28 7 -66 15 -84 12 -28 12 -34 -3 -51 -9 -10 -17 -26 -17 -36 0 -20
-44 -99 -65 -116 -12 -10 -15 -38 -15 -120 0 -101 2 -110 25 -138 31 -37 31
-40 -1 -73 l-25 -26 36 -61 c38 -65 74 -97 121 -107 16 -3 53 -13 81 -21 l53
-16 45 37 c24 21 43 41 40 45 -3 4 -21 11 -40 14 -27 5 -41 2 -66 -16 l-31
-23 -19 24 c-15 18 -30 25 -61 25 -45 1 -66 21 -54 51 6 17 8 17 26 -2 22 -24
88 -39 103 -24 6 6 30 11 53 11 49 0 76 8 68 21 -3 5 -29 7 -57 4 -70 -8 -152
14 -152 41 0 15 8 20 45 22 51 4 89 31 202 146 64 65 71 69 83 53 7 -10 11
-26 8 -37 -3 -10 7 -39 22 -64 14 -25 25 -53 24 -63 -2 -10 6 -34 16 -53 15
-27 20 -61 23 -145 5 -156 36 -215 156 -298 26 -18 35 -51 16 -62 -27 -17 14
-61 45 -49 8 4 32 31 52 62 37 55 38 58 45 186 11 175 11 169 0 267 -5 51 -15
95 -25 110 -9 13 -17 35 -17 49 0 14 -15 57 -34 95 -26 54 -49 84 -104 133
-64 57 -74 62 -116 62 -24 0 -48 -5 -52 -11 -3 -6 -27 -20 -53 -31 -25 -10
-54 -26 -63 -35 -21 -19 -54 -9 -62 20 -10 38 -7 112 6 125 7 7 20 12 29 12 9
0 22 7 29 15 7 8 30 20 53 26 28 7 59 30 106 77 77 78 168 179 194 216 10 14
22 26 28 26 5 0 32 -30 59 -67 40 -55 50 -76 50 -109 0 -28 8 -51 23 -70 19
-25 22 -39 20 -108 -2 -58 1 -84 12 -96 7 -8 19 -38 25 -65 12 -57 79 -213
126 -295 19 -32 56 -74 87 -99 30 -24 73 -65 96 -92 30 -35 49 -49 68 -49 15
0 46 -12 71 -26 l44 -26 218 4 c210 3 219 4 242 26 14 12 30 22 36 22 15 0 16
56 2 65 -6 4 -20 26 -31 49 -23 51 -90 118 -152 154 -25 15 -117 97 -204 182
-203 198 -198 185 -212 515 -10 254 6 718 27 768 7 16 12 51 12 78 0 27 9 75
20 106 12 34 20 83 20 119 0 34 6 77 14 95 8 19 16 55 18 80 2 24 12 56 21 69
9 14 17 43 17 67 0 23 5 45 10 48 6 3 10 17 10 31 0 13 14 51 30 84 17 33 30
69 30 80 0 12 6 33 14 48 7 15 17 47 21 71 7 40 31 100 71 173 8 14 14 39 14
55 0 17 9 38 20 48 11 10 20 24 20 31 0 23 73 195 115 269 56 100 144 216 180
234 51 27 102 85 102 117 0 18 14 48 36 77 20 27 37 53 37 58 0 5 -13 12 -29
15 -23 5 -31 12 -33 33 -3 22 -9 27 -43 31 -22 3 -52 13 -65 23 -13 9 -37 17
-51 17 -45 0 -58 10 -100 72 l-41 59 -52 -6 c-51 -7 -54 -6 -76 25 -12 17 -34
36 -49 43 -42 18 -324 15 -401 -4z m80 -960 c0 -38 -24 -35 -28 4 -2 19 1 27
12 27 11 0 16 -10 16 -31z m-45 -79 c13 -20 7 -78 -11 -104 -10 -17 -17 -42
-16 -60 2 -22 -6 -44 -29 -76 -22 -30 -33 -57 -34 -81 0 -21 -7 -44 -14 -53
-8 -9 -16 -40 -19 -69 -2 -31 -12 -60 -23 -72 -13 -15 -18 -35 -17 -85 0 -36
-6 -88 -15 -117 -8 -28 -13 -61 -10 -73 7 -26 -25 -100 -44 -100 -17 0 -16 23
2 84 8 27 15 70 15 95 1 25 9 84 20 131 10 47 30 141 45 210 15 69 37 148 50
175 41 89 75 174 75 190 0 17 16 20 25 5z m97 -392 c-2 -35 -12 -81 -23 -104
-10 -22 -23 -61 -28 -87 -4 -26 -13 -52 -18 -59 -6 -7 -13 -47 -15 -89 -4 -57
-10 -84 -26 -107 -17 -23 -22 -45 -22 -94 0 -43 -6 -72 -18 -93 -12 -19 -21
-60 -25 -110 -4 -44 -16 -107 -27 -140 -17 -49 -20 -73 -14 -130 4 -49 1 -91
-9 -135 -34 -143 -39 -260 -21 -481 5 -55 3 -78 -6 -84 -6 -4 -16 -3 -22 3
-14 14 -11 571 3 644 14 77 29 211 32 298 2 41 11 93 20 115 9 22 16 62 17 89
0 31 12 80 34 135 22 56 37 113 41 161 4 49 14 85 26 102 26 36 24 62 -6 94
-14 15 -25 28 -25 30 0 12 14 34 22 34 6 0 28 16 49 35 57 51 66 47 61 -27z
m118 47 c0 -8 -4 -15 -10 -15 -5 0 -10 7 -10 15 0 8 5 15 10 15 6 0 10 -7 10
-15z m-510 -421 c0 -9 -10 -33 -22 -52 -15 -25 -21 -48 -19 -79 1 -34 -3 -50
-22 -73 -23 -26 -24 -36 -25 -156 -1 -114 -4 -132 -23 -157 -20 -27 -21 -40
-22 -337 -2 -291 -3 -309 -20 -314 -25 -6 -107 69 -107 98 0 11 -4 26 -8 32
-10 14 -108 64 -127 64 -8 0 -41 20 -74 45 -32 25 -63 45 -69 45 -5 0 -17 9
-27 20 -22 24 -38 25 -55 5 -10 -13 -8 -19 14 -36 17 -14 26 -29 24 -43 -3
-18 -9 -21 -43 -19 -50 4 -68 25 -62 76 3 20 0 50 -5 65 -18 46 -1 97 53 165
27 34 65 85 83 112 62 92 200 249 256 291 30 23 105 92 165 152 108 109 135
128 135 96z m75 -184 c0 -38 -20 -52 -30 -21 -8 27 3 63 18 58 7 -2 12 -19 12
-37z m-38 -313 c-5 -147 -16 -207 -31 -161 -8 26 0 309 8 323 4 6 12 8 18 5 7
-5 9 -58 5 -167z m-42 -419 c3 -68 4 -139 1 -158 -2 -19 -5 -50 -5 -67 -1 -18
-5 -33 -9 -33 -5 0 -12 55 -15 123 -6 130 1 257 13 257 5 0 11 -55 15 -122z
m-426 -201 c42 -21 48 -43 23 -74 -13 -15 -28 -39 -35 -53 -6 -14 -53 -65
-104 -113 -70 -67 -98 -88 -115 -85 -28 4 -27 38 1 74 16 21 19 38 16 129 -2
83 0 109 12 120 18 19 167 20 202 2z m-1540 -119 c18 -19 41 -64 56 -108 67
-196 105 -325 105 -358 0 -19 7 -44 17 -54 11 -13 17 -42 20 -98 l5 -80 -30 0
c-16 0 -35 7 -42 15 -7 9 -70 53 -140 100 -132 87 -188 143 -199 198 -13 62 7
157 48 240 39 75 108 176 123 177 4 0 21 -15 37 -32z m1056 -54 c0 -19 -5 -29
-15 -29 -16 0 -25 28 -16 51 10 25 31 10 31 -22z m446 -516 c28 -30 39 -61 39
-109 0 -56 -19 -49 -57 20 -50 91 -38 147 18 89z m-483 -281 c5 -24 -15 -21
-28 4 -10 18 -9 20 7 17 10 -2 19 -11 21 -21z"/>
<path d="M2751 3024 c0 -11 3 -14 6 -6 3 7 2 16 -1 19 -3 4 -6 -2 -5 -13z"/>
</g>
</svg>
